<svg xmlns="http://www.w3.org/2000/svg" viewBox="0 0 254.75 254.75">
 <style>
  .fil0 {fill:none}
  .fil1 {fill:#0f0f0f}
  .fil2 {fill:#FDFDFD}
 </style>
 <circle class="fil0" cx="127.38" cy="127.37" r="127.37"/>
 <path class="fil1" d="M5.72 137.01l0 4.21c1.06,2.91 -0.21,8.49 6.99,18.39 3.95,5.44 7.89,7.22 9.83,9.2 4.95,5.06 3.75,9.48 3.46,14.83 -0.54,9.96 3.49,20.38 10.49,27.11 11.66,11.22 21.99,8.92 27.32,10.73 8.51,2.9 5.92,10.5 17.83,20.22 8.38,6.84 15.66,6.44 17.86,7.43l6.51 0c1.8,-0.83 5.29,-0.44 11.15,-3.18 3.24,-1.52 5.93,-3.96 10.31,-3.98 4.6,-0.03 7.02,2.43 10.34,3.95 6.06,2.78 8.96,2.22 11.16,3.21l5.93 0c0.9,-0.33 4.08,-0.64 5.39,-0.95 1.66,-0.39 3.35,-0.95 4.86,-1.57 6.08,-2.5 10.28,-6.21 14.24,-10.96 4.31,-5.19 5.2,-11.8 11.44,-14 5.33,-1.89 16.13,0.22 27.23,-10.58 4.47,-4.36 7.95,-9.5 9.58,-15.86 3.25,-12.61 -0.75,-16.15 2.01,-22.25 1.56,-3.44 3.6,-4.67 6.11,-6.74 2.45,-2.03 4.24,-3.79 6.31,-6.29 6.35,-7.64 6.53,-16.55 7.16,-18.06l0 -5.07c-0.5,-1.42 -0.65,-4.81 -1.31,-6.93 -1.6,-5.12 -2.85,-6.93 -5.58,-11.07 -5.76,-8.73 -2.04,-11.47 0.17,-19.07 2.84,-9.76 0.89,-21.77 -5.43,-29.64 -12.91,-16.07 -21.84,-8.92 -26.45,-18.97 -0.98,-2.13 -1.08,-4.31 -1.64,-6.68 -3.61,-15.52 -17.08,-25.85 -32.54,-25.46 -7.5,0.19 -9.8,2.33 -13.68,2.9 -9.49,1.39 -9.69,-7 -20.44,-12.57 -7.21,-3.74 -10.23,-2.94 -12.59,-3.69l-5.47 0c-1.13,0.53 -5.08,1.02 -6.82,1.63 -12.55,4.38 -13.66,11.4 -19.38,13.91 -6.57,2.88 -10.64,-2.34 -20.77,-2.19 -8.62,0.13 -17.89,4.22 -23.21,10.05 -9.26,10.15 -7.4,18.13 -10.12,22.94 -2.37,4.21 -4.9,4.74 -10.11,6.53 -11.32,3.88 -20.7,13.96 -22.43,27.29 -2.42,18.62 9.87,20.88 1.03,33.36 -1.17,1.64 -2.18,3.18 -3.19,5.13 -0.89,1.7 -1.8,3.98 -2.36,5.98 -0.59,2.12 -0.69,5.08 -1.19,6.76z"/>
 <path class="fil2" d="M88.19 56.62c-7.58,1.32 -10.61,16.23 -12.02,22.78 -6.64,30.8 -7.02,79.98 3.52,108.84 1.55,4.26 3.57,8.55 7.6,9.77 6.26,1.88 22.83,-3.36 28.65,-5.36 8.52,-2.93 16.59,-6.67 24.3,-10.42 7.88,-3.83 15.51,-8.1 22.52,-12.44 3.68,-2.28 7.02,-4.46 10.49,-6.86 5.16,-3.59 13.77,-9.84 18.32,-14.03l3.43 -3.22c3.67,-3.24 7.56,-7.37 10.53,-11.35 4.76,-6.39 2.54,-9.95 -1.36,-15.16 -0.52,-0.69 -1.44,-1.87 -2.03,-2.49 -1.62,-1.7 -2.57,-2.87 -4.12,-4.44l-4.58 -4.23c-0.98,-1.05 -1.33,-1.17 -2.24,-2.03 -0.52,-0.51 -0.66,-0.54 -1.17,-0.98l-6.12 -5.05c-17.27,-13.95 -46.67,-29.9 -67.13,-37.27 -5.96,-2.14 -21.89,-7.23 -28.59,-6.06z"/>
 <path class="fil2" d="M106.01 249.13l42.96 0c-2.2,-0.99 -5.1,-0.43 -11.16,-3.21 -3.32,-1.52 -5.74,-3.98 -10.34,-3.95 -4.38,0.02 -7.07,2.46 -10.31,3.98 -5.86,2.74 -9.35,2.35 -11.15,3.18z"/>
</svg>
