<svg xmlns="http://www.w3.org/2000/svg" viewBox="0 0 512 512" fill="#A238FF">
    <path d="M481 274l0 8c-2,5 0,16 -13,34 -7,10 -15,13 -18,17 -9,9 -7,18 -6,27 1,18 -6,38 -19,50 -22,21 -41,16 -50,20 -16,5 -11,19 -33,37 -18,15 -45,18 -66,8 -6,-3 -11,-7 -19,-7 -8,0 -13,5 -19,7 -28,13 -57,4 -77,-19 -8,-10 -10,-22 -21,-26 -10,-3 -30,0 -50,-20 -8,-8 -15,-18 -18,-29 -6,-23 1,-30 -4,-41 -3,-6 -7,-9 -11,-12 -5,-4 -8,-7 -12,-12 -12,-14 -12,-31 -13,-33l0 -9c1,-3 1,-9 2,-13 3,-9 5,-13 10,-20 11,-16 4,-21 0,-35 -5,-18 -2,-40 10,-55 24,-30 40,-16 49,-35 2,-4 2,-8 3,-12 7,-29 32,-48 60,-47 14,0 18,4 25,5 18,3 18,-13 38,-23 14,-7 31,-9 46,-4 23,8 25,21 36,26 12,5 20,-4 38,-4 16,0 33,8 43,19 17,19 14,33 19,42 4,8 9,9 19,12 21,7 38,26 41,50 4,34 -18,39 -2,62 2,3 4,6 6,9 2,3 3,7 4,11 1,4 1,9 2,13zm-93 -21c-2,-7 -8,-12 -11,-16 -1,-2 -1,-2 -3,-3 -1,-1 -2,-2 -4,-4 -7,-8 -14,-13 -22,-20 -3,-2 -5,-4 -8,-6 -15,-10 -26,-18 -43,-27 -23,-13 -53,-26 -80,-32 -22,-5 -30,-5 -37,14 -16,47 -17,153 2,198 3,7 6,12 15,13 8,0 17,-2 24,-4 15,-4 28,-9 41,-14 13,-6 25,-12 37,-19 6,-3 12,-7 18,-10 12,-8 22,-15 33,-23 1,-1 2,-2 4,-3l8 -7c1,-1 2,-2 4,-3 4,-3 16,-16 20,-22 2,-3 4,-7 3,-11z"/>
  </svg>