<svg xmlns="http://www.w3.org/2000/svg">
  <!-- CONTROLES -->
  <symbol id="control-shuffle" viewBox="0 -960 960 960">
    <path d="M560-160v-80h104L537-367l57-57 126 126v-102h80v240H560Zm-344 0-56-56 504-504H560v-80h240v240h-80v-104L216-160Zm151-377L160-744l56-56 207 207-56 56Z"/>
  </symbol>
  <symbol id="control-shuffle-active" viewBox="0 -960 960 960">
    <path d="M120-40q-33 0-56.5-23.5T40-120v-720q0-33 23.5-56.5T120-920h720q33 0 56.5 23.5T920-840v720q0 33-23.5 56.5T840-40H120Zm440-120h240v-240h-80v102L594-424l-57 57 127 127H560v80Zm-344 0 504-504v104h80v-240H560v80h104L160-216l56 56Zm151-377 56-56-207-207-56 56 207 207Z"/>
  </symbol>
  <symbol id="control-prev" viewBox="0 -960 960 960">
    <path d="M220-240v-480h80v480h-80Zm520 0L380-480l360-240v480Z"/>
  </symbol>

  <symbol id="control-play-circle" viewBox="0 -960 960 960">
    <path d="m380-300 280-180-280-180v360ZM480-80q-83 0-156-31.5T197-197q-54-54-85.5-127T80-480q0-83 31.5-156T197-763q54-54 127-85.5T480-880q83 0 156 31.5T763-763q54 54 85.5 127T880-480q0 83-31.5 156T763-197q-54 54-127 85.5T480-80Zm0-80q134 0 227-93t93-227q0-134-93-227t-227-93q-134 0-227 93t-93 227q0 134 93 227t227 93Zm0-320Z"/>
  </symbol>

  <symbol id="control-pause-circle" viewBox="0 -960 960 960">
    <path d="M360-320h80v-320h-80v320Zm160 0h80v-320h-80v320ZM480-80q-83 0-156-31.5T197-197q-54-54-85.5-127T80-480q0-83 31.5-156T197-763q54-54 127-85.5T480-880q83 0 156 31.5T763-763q54 54 85.5 127T880-480q0 83-31.5 156T763-197q-54 54-127 85.5T480-80Zm0-80q134 0 227-93t93-227q0-134-93-227t-227-93q-134 0-227 93t-93 227q0 134 93 227t227 93Zm0-320Z"/>
  </symbol>

  <symbol id="control-pause" viewBox="0 -960 960 960">
    <path d="M560-200v-560h160v560H560Zm-320 0v-560h160v560H240Z"/>
  </symbol>

  <symbol id="control-play" viewBox="0 -960 960 960">
    <path d="M320-200v-560l440 280-440 280Z"/>
  </symbol>

 
  <symbol id="control-next" viewBox="0 -960 960 960">
    <path d="M660-240v-480h80v480h-80Zm-440 0v-480l360 240-360 240Z"/>
  </symbol>
  
  <symbol id="control-repeat" viewBox="0 -960 960 960">
    <path d="M280-80 120-240l160-160 56 58-62 62h406v-160h80v240H274l62 62-56 58Zm-80-440v-240h486l-62-62 56-58 160 160-160 160-56-58 62-62H280v160h-80Z"/>
  </symbol>
  
  <symbol id="control-repeat-one" viewBox="0 -960 960 960">
    <path d="M460-360v-180h-60v-60h120v240h-60ZM280-80 120-240l160-160 56 58-62 62h406v-160h80v240H274l62 62-56 58Zm-80-440v-240h486l-62-62 56-58 160 160-160 160-56-58 62-62H280v160h-80Z"/>
  </symbol>

<!-- SIDEBAR -->

  <symbol id="menu-case" viewBox="0 -960 960 960">
    <path d="M120-240v-80h720v80H120Zm0-200v-80h720v80H120Zm0-200v-80h720v80H120Z"/>
  </symbol>  

  <symbol id="home-case" viewBox="0 -960 960 960">
    <path d="M240-200h120v-240h240v240h120v-360L480-740 240-560v360Zm-80 80v-480l320-240 320 240v480H520v-240h-80v240H160Zm320-350Z"/>
  </symbol>

  <symbol id="playlist-case" viewBox="0 -960 960 960">
    <path d="M640-160q-50 0-85-35t-35-85q0-50 35-85t85-35q11 0 21 1.5t19 6.5v-328h200v80H760v360q0 50-35 85t-85 35ZM120-320v-80h320v80H120Zm0-160v-80h480v80H120Zm0-160v-80h480v80H120Z"/>
  </symbol>

  <symbol id="artist-case" viewBox="0 -960 960 960">
    <path d="M740-560h140v80h-80v220q0 42-29 71t-71 29q-42 0-71-29t-29-71q0-42 29-71t71-29q8 0 18 1.5t22 6.5v-208ZM120-160v-112q0-35 17.5-63t46.5-43q62-31 126-46.5T440-440q42 0 83.5 6.5T607-414q-20 12-36 29t-28 37q-26-6-51.5-9t-51.5-3q-57 0-112 14t-108 40q-9 5-14.5 14t-5.5 20v32h321q2 20 9.5 40t20.5 40H120Zm207-367q-47-47-47-113t47-113q47-47 113-47t113 47q47 47 47 113t-47 113q-47 47-113 47t-113-47Zm169.5-56.5Q520-607 520-640t-23.5-56.5Q473-720 440-720t-56.5 23.5Q360-673 360-640t23.5 56.5Q407-560 440-560t56.5-23.5ZM440-640Zm0 400Z"/>
  </symbol>

  <symbol id="add-case" viewBox="0 -960 960 960">
    <path d="M440-440H200v-80h240v-240h80v240h240v80H520v240h-80v-240Z"/>
  </symbol>

  <symbol id="favorite-filled-case" viewBox="0 -960 960 960">
    <path d="m480-120-58-52q-101-91-167-157T150-447.5Q111-500 95.5-544T80-634q0-94 63-157t157-63q52 0 99 22t81 62q34-40 81-62t99-22q94 0 157 63t63 157q0 46-15.5 90T810-447.5Q771-395 705-329T538-172l-58 52Z"/>
  </symbol>
  <symbol id="favorite-outlined-case" viewBox="0 -960 960 960">
    <path d="m480-120-58-52q-101-91-167-157T150-447.5Q111-500 95.5-544T80-634q0-94 63-157t157-63q52 0 99 22t81 62q34-40 81-62t99-22q94 0 157 63t63 157q0 46-15.5 90T810-447.5Q771-395 705-329T538-172l-58 52Zm0-108q96-86 158-147.5t98-107q36-45.5 50-81t14-70.5q0-60-40-100t-100-40q-47 0-87 26.5T518-680h-76q-15-41-55-67.5T300-774q-60 0-100 40t-40 100q0 35 14 70.5t50 81q36 45.5 98 107T480-228Zm0-273Z"/>
  </symbol>

  <symbol id="info-case" viewBox="0 -960 960 960">
    <path d="M440-280h80v-240h-80v240Zm68.5-331.5Q520-623 520-640t-11.5-28.5Q497-680 480-680t-28.5 11.5Q440-657 440-640t11.5 28.5Q463-600 480-600t28.5-11.5ZM480-80q-83 0-156-31.5T197-197q-54-54-85.5-127T80-480q0-83 31.5-156T197-763q54-54 127-85.5T480-880q83 0 156 31.5T763-763q54 54 85.5 127T880-480q0 83-31.5 156T763-197q-54 54-127 85.5T480-80Zm0-80q134 0 227-93t93-227q0-134-93-227t-227-93q-134 0-227 93t-93 227q0 134 93 227t227 93Zm0-320Z"/>
  </symbol>

<!-- OTHERS -->

  <symbol id="more-vert-case" viewBox="0 -960 960 960">
    <path d="M480-160q-33 0-56.5-23.5T400-240q0-33 23.5-56.5T480-320q33 0 56.5 23.5T560-240q0 33-23.5 56.5T480-160Zm0-240q-33 0-56.5-23.5T400-480q0-33 23.5-56.5T480-560q33 0 56.5 23.5T560-480q0 33-23.5 56.5T480-400Zm0-240q-33 0-56.5-23.5T400-720q0-33 23.5-56.5T480-800q33 0 56.5 23.5T560-720q0 33-23.5 56.5T480-640Z"/>
  </symbol>

  <symbol id="search-case" viewBox="0 -960 960 960">
    <path d="M784-120 532-372q-30 24-69 38t-83 14q-109 0-184.5-75.5T120-580q0-109 75.5-184.5T380-840q109 0 184.5 75.5T640-580q0 44-14 83t-38 69l252 252-56 56ZM380-400q75 0 127.5-52.5T560-580q0-75-52.5-127.5T380-760q-75 0-127.5 52.5T200-580q0 75 52.5 127.5T380-400Z"/>
  </symbol>

  <symbol id="notifications-case" viewBox="0 -960 960 960">
    <path d="M160-200v-80h80v-280q0-83 50-147.5T420-792v-28q0-25 17.5-42.5T480-880q25 0 42.5 17.5T540-820v28q80 20 130 84.5T720-560v280h80v80H160Zm320-300Zm0 420q-33 0-56.5-23.5T400-160h160q0 33-23.5 56.5T480-80ZM320-280h320v-280q0-66-47-113t-113-47q-66 0-113 47t-47 113v280Z"/>
  </symbol>

  <symbol id="person-case" viewBox="0 -960 960 960">
    <path d="M367-527q-47-47-47-113t47-113q47-47 113-47t113 47q47 47 47 113t-47 113q-47 47-113 47t-113-47ZM160-160v-112q0-34 17.5-62.5T224-378q62-31 126-46.5T480-440q66 0 130 15.5T736-378q29 15 46.5 43.5T800-272v112H160Z"/>
  </symbol>

  <symbol id="arrow-back-case" viewBox="0 -960 960 960">
    <path d="m313-440 224 224-57 56-320-320 320-320 57 56-224 224h487v80H313Z"/>
  </symbol>

  <symbol id="arrow-forward-case" viewBox="0 -960 960 960">
    <path d="M647-440H160v-80h487L423-744l57-56 320 320-320 320-57-56 224-224Z"/>
  </symbol>

  <symbol id="delete-case" viewBox="0 -960 960 960">
    <path d="M280-120q-33 0-56.5-23.5T200-200v-520h-40v-80h200v-40h240v40h200v80h-40v520q0 33-23.5 56.5T680-120H280Zm400-600H280v520h400v-520ZM360-280h80v-360h-80v360Zm160 0h80v-360h-80v360ZM280-720v520-520Z"/>
  </symbol>

  <symbol id="close-case" viewBox="0 -960 960 960">
    <path d="m256-200-56-56 224-224-224-224 56-56 224 224 224-224 56 56-224 224 224 224-56 56-224-224-224 224Z"/>
  </symbol>
  <symbol id="cloud-off-case" viewBox="0 -960 960 960">
    <path d="M792-56 686-160H260q-92 0-156-64T40-380q0-77 47.5-137T210-594q3-8 6-15.5t6-16.5L56-792l56-56 736 736-56 56ZM260-240h346L284-562q-2 11-3 21t-1 21h-20q-58 0-99 41t-41 99q0 58 41 99t99 41Zm185-161Zm419 191-58-56q17-14 25.5-32.5T840-340q0-42-29-71t-71-29h-60v-80q0-83-58.5-141.5T480-720q-27 0-52 6.5T380-693l-58-58q35-24 74.5-36.5T480-800q117 0 198.5 81.5T760-520q69 8 114.5 59.5T920-340q0 39-15 72.5T864-210ZM593-479Z"/>
  </symbol>
  <symbol id="download-case" viewBox="0 -960 960 960">
    <path d="M480-320 280-520l56-58 104 104v-326h80v326l104-104 56 58-200 200ZM240-160q-33 0-56.5-23.5T160-240v-120h80v120h480v-120h80v120q0 33-23.5 56.5T720-160H240Z"/>
  </symbol>
  <symbol id="edit-case" viewBox="0 -960 960 960">
    <path d="M200-200h57l391-391-57-57-391 391v57Zm-80 80v-170l528-527q12-11 26.5-17t30.5-6q16 0 31 6t26 18l55 56q12 11 17.5 26t5.5 30q0 16-5.5 30.5T817-647L290-120H120Zm640-584-56-56 56 56Zm-141 85-28-29 57 57-29-28Z"/>
  </symbol>
  <symbol id="equalizer-case" viewBox="0 -960 960 960">
    <path d="M160-160v-320h160v320H160Zm240 0v-640h160v640H400Zm240 0v-440h160v440H640Z"/>
  </symbol>
  <symbol id="fullscreen-case" viewBox="0 -960 960 960">
    <path d="M120-120v-200h80v120h120v80H120Zm520 0v-80h120v-120h80v200H640ZM120-640v-200h200v80H200v120h-80Zm640 0v-120H640v-80h200v200h-80Z"/>
  </symbol>

  <symbol id="share-case" viewBox="0 0 32 32">
    <path d="M29.28,12.47,18.6,3.62a2,2,0,0,0-2.17-.27,2,2,0,0,0-1.15,1.81v2A19.82,19.82,0,0,0,2,25.94a19.18,19.18,0,0,0,.25,3.11,1,1,0,0,0,.82.83h.17a1,1,0,0,0,.88-.53,17.29,17.29,0,0,1,11.16-8.68v2.16a2,2,0,0,0,1.15,1.81,2.09,2.09,0,0,0,.88.2,2,2,0,0,0,1.29-.48l4.86-4,.09-.07,5.73-4.75a2,2,0,0,0,0-3.06Zm-6.93,6.2-.09.07-5,4.1V19.42a.19.19,0,0,0,0-.08s0-.06,0-.09,0-.07-.05-.11a1.34,1.34,0,0,0-.07-.18A.57.57,0,0,0,17,18.8a.49.49,0,0,0-.12-.13,1,1,0,0,0-.17-.12l-.15-.07-.22,0-.1,0-.08,0h-.09A19.19,19.19,0,0,0,4,25.85a17.81,17.81,0,0,1,12.56-17l.05,0a1.11,1.11,0,0,0,.19-.09A1.43,1.43,0,0,0,17,8.63l.12-.14a.54.54,0,0,0,.1-.16.85.85,0,0,0,.06-.17,1.3,1.3,0,0,0,0-.21.43.43,0,0,0,0,0l0-2.74L28,14Z"/>
  </symbol>

  <symbol id="update-case" viewBox="0 -960 960 960">
    <path d="M480-120q-75 0-140.5-28.5t-114-77q-48.5-48.5-77-114T120-480q0-75 28.5-140.5t77-114q48.5-48.5 114-77T480-840q82 0 155.5 35T760-706v-94h80v240H600v-80h110q-41-56-101-88t-129-32q-117 0-198.5 81.5T200-480q0 117 81.5 198.5T480-200q105 0 183.5-68T756-440h82q-15 137-117.5 228.5T480-120Zm112-192L440-464v-216h80v184l128 128-56 56Z"/>
  </symbol>
  <symbol id="zoom-in-case" viewBox="0 -960 960 960">
    <path d="M784-120 532-372q-30 24-69 38t-83 14q-109 0-184.5-75.5T120-580q0-109 75.5-184.5T380-840q109 0 184.5 75.5T640-580q0 44-14 83t-38 69l252 252-56 56ZM380-400q75 0 127.5-52.5T560-580q0-75-52.5-127.5T380-760q-75 0-127.5 52.5T200-580q0 75 52.5 127.5T380-400Zm-40-60v-80h-80v-80h80v-80h80v80h80v80h-80v80h-80Z"/>
  </symbol>

  <symbol id="library-music-case" viewBox="0 -960 960 960">
    <path d="M440-280q33 0 56.5-23.5T520-360q0-33-23.5-56.5T440-440q-33 0-56.5 23.5T360-360q0 33 23.5 56.5T440-280Zm0-240q33 0 56.5-23.5T520-600q0-33-23.5-56.5T440-680q-33 0-56.5 23.5T360-600q0 33 23.5 56.5T440-520ZM260-80q-24 0-42-18t-18-42v-680q0-24 18-42t42-18h440q24 0 42 18t18 42v680q0 24-18 42t-42 18H260Zm0-60h440v-680H260v680Zm620-440v-240h60v240h-60Zm0 360v-240h60v240h-60Z"/>
  </symbol>

  <symbol id="star-case" viewBox="0 -960 960 960">
    <path d="m233-120 65-281L80-590l288-25 112-265 112 265 288 25-218 189 65 281-247-149-247 149Z"/>
  </symbol>

    <symbol id="remove-case" viewBox="0 -960 960 960">
    <path d="M200-440v-80h560v80H200Z"/>
  </symbol>

</svg>